<?xml version="1.0" standalone="no"?>
<!DOCTYPE svg PUBLIC "-//W3C//DTD SVG 20010904//EN"
 "http://www.w3.org/TR/2001/REC-SVG-20010904/DTD/svg10.dtd">
<svg version="1.0" xmlns="http://www.w3.org/2000/svg"
 width="1264.000000pt" height="1264.000000pt" viewBox="0 0 1264.000000 1264.000000"
 preserveAspectRatio="xMidYMid meet">
<metadata>
Created by potrace 1.11, written by Peter Selinger 2001-2013
</metadata>
<g transform="translate(0.000000,1264.000000) scale(0.100000,-0.100000)"
fill="#000000" stroke="none">
<path d="M5089 8676 c-2 -2 -30 -6 -62 -10 -125 -13 -294 -65 -432 -134 -244
-121 -484 -359 -602 -597 -137 -275 -168 -515 -108 -843 29 -157 134 -405 243
-572 134 -207 264 -348 628 -680 33 -30 82 -75 110 -100 45 -41 273 -245 353
-315 18 -16 39 -34 45 -40 59 -52 203 -182 212 -190 6 -5 53 -48 105 -95 201
-183 372 -352 459 -455 23 -27 52 -61 64 -75 43 -50 149 -216 190 -300 57
-113 80 -175 116 -299 16 -57 32 -106 34 -109 3 -2 8 9 11 24 22 96 85 274
130 366 113 228 239 386 526 653 117 109 327 300 458 415 41 36 79 70 85 75 6
6 47 41 91 80 44 38 89 79 100 90 11 11 36 33 55 49 32 26 122 106 245 216 83
75 327 321 375 379 25 29 50 59 56 65 80 86 258 359 313 481 47 104 69 162 92
250 25 94 24 87 33 150 15 105 17 122 17 220 0 302 -111 599 -311 829 -84 98
-249 234 -343 286 -138 75 -289 136 -382 155 -133 26 -197 33 -315 33 -268 0
-519 -81 -735 -238 -146 -106 -255 -231 -424 -485 -41 -60 -77 -114 -81 -118
-4 -5 -26 31 -49 79 -157 326 -447 587 -771 694 -74 24 -77 25 -180 46 -65 14
-341 29 -351 20z"/>
</g>
</svg>
